<?xml version="1.0" encoding="utf-8"?>
<!-- Generator: Adobe Illustrator 17.1.0, SVG Export Plug-In . SVG Version: 6.00 Build 0)  -->
<!DOCTYPE svg PUBLIC "-//W3C//DTD SVG 1.1//EN" "http://www.w3.org/Graphics/SVG/1.1/DTD/svg11.dtd">
<svg version="1.1" id="Layer_1" xmlns="http://www.w3.org/2000/svg" xmlns:xlink="http://www.w3.org/1999/xlink" x="0px" y="0px"
	 viewBox="0 0 15.7 15.1" enable-background="new 0 0 15.7 15.1" xml:space="preserve">
<g>
	<g>
		<path fill="#414141" d="M13.8,12.1l-3.5-3.5C10.8,7.9,11.1,7,11.1,6c0-2.7-2.2-5-5-5c-2.7,0-5,2.2-5,5c0,2.7,2.2,5,5,5
			c1,0,1.9-0.3,2.6-0.8l3.5,3.5c0.2,0.2,0.6,0.4,0.9,0.4c0,0,0,0,0,0c0.3,0,0.5-0.1,0.8-0.3c0.2-0.2,0.3-0.5,0.3-0.8
			C14.2,12.7,14.1,12.4,13.8,12.1z M8.9,6c0,1.5-1.2,2.8-2.8,2.8C4.6,8.8,3.4,7.5,3.4,6c0-1.5,1.2-2.8,2.8-2.8
			C7.7,3.3,8.9,4.5,8.9,6z"/>
	</g>
</g>
</svg>
